# xmcd
#
# Track frame offsets: 
#        150
#        12082
#        28527
#        50732
#        69362
#        90435
#        122182
#        146857
#        164190
#        183427
#        201685
#        220550
#        235915
#
# Disc length: 3316 seconds
#
# Revision: 5
# Processed by: cddbd v1.5.2PL0 Copyright (c) Steve Scherf et al.
# Submitted via: ExactAudioCopy v1.0b1
#
DISCID=c00cf20d
DTITLE=The Hellecasters - The Return of The Hellecasters
DYEAR=1994
DGENRE=Instrumental
TTITLE0=Highlander Boogie
TTITLE1=Peter Gunn
TTITLE2=Back on Terra Firma
TTITLE3=Sweet Dreams
TTITLE4=King Arthur's Dream
TTITLE5=Orange Blossom Special
TTITLE6=5 Minutes to Spare
TTITLE7=Rockin' the Dog
TTITLE8=Hellecaster Stomp
TTITLE9=Passion
TTITLE10=Help I've Fallen (& I Can't Get Up)
TTITLE11=Menage: The Beak - The Claw
TTITLE12=Hellecaster Theme
EXTD=(c) 1994, Rio Records [RIO 2004-2]
EXTT0=
EXTT1=
EXTT2=
EXTT3=
EXTT4=
EXTT5=
EXTT6=
EXTT7=
EXTT8=
EXTT9=
EXTT10=
EXTT11=
EXTT12=
PLAYORDER=
